<?xml version="1.0" standalone="no"?>
<!DOCTYPE svg PUBLIC "-//W3C//DTD SVG 20010904//EN"
 "http://www.w3.org/TR/2001/REC-SVG-20010904/DTD/svg10.dtd">
<svg version="1.0" xmlns="http://www.w3.org/2000/svg"
 width="128.000000pt" height="128.000000pt" viewBox="0 0 128.000000 128.000000"
 preserveAspectRatio="xMidYMid meet">

<g transform="translate(0.000000,128.000000) scale(0.100000,-0.100000)"
fill="#000000" stroke="none">
<path d="M504 1161 c-57 -26 -102 -77 -119 -136 -13 -42 -14 -73 -5 -195 12
-174 16 -195 43 -239 16 -27 18 -35 6 -42 -21 -13 -22 -12 -46 30 -20 35 -21
39 -5 54 12 13 13 20 4 29 -9 9 -20 8 -47 -5 l-35 -17 -24 38 c-12 20 -56 94
-96 164 l-72 127 -28 -14 c-16 -8 -31 -19 -35 -25 -3 -5 35 -80 85 -166 49
-87 90 -161 90 -165 0 -5 -14 -16 -31 -24 -38 -20 -36 -51 3 -47 22 2 29 -5
53 -51 l28 -53 -27 -40 c-48 -73 -69 -149 -74 -271 l-5 -113 472 0 471 0 0
103 c0 107 -15 177 -52 251 -28 54 -113 142 -168 174 -25 14 -46 26 -48 27 -1
1 9 24 22 51 22 42 26 71 36 214 9 144 9 171 -5 210 -19 55 -66 106 -120 131
-56 26 -213 26 -271 0z m287 -188 c43 -25 63 -75 56 -141 -10 -92 -54 -115
-132 -67 -51 31 -89 31 -140 0 -76 -47 -119 -26 -128 61 -7 67 8 110 48 142
25 20 40 22 147 22 95 0 126 -4 149 -17z"/>
<path d="M494 924 c-18 -15 -18 -15 6 -10 14 3 35 6 48 6 12 0 22 5 22 10 0
16 -54 12 -76 -6z"/>
<path d="M716 931 c5 -5 27 -11 49 -15 37 -6 39 -5 21 9 -21 16 -87 22 -70 6z"/>
<path d="M522 848 c-23 -23 -14 -38 24 -38 31 0 35 3 32 23 -3 25 -36 35 -56
15z"/>
<path d="M710 845 c-16 -20 -4 -35 29 -35 35 0 43 8 30 31 -12 23 -42 25 -59
4z"/>
</g>
</svg>
